<svg xmlns="http://www.w3.org/2000/svg" width="229.75000000000003px" height="77.15px" viewBox="-20.95 -56.5 229.75000000000003 77.15"><path d="M6.65 0L-0.95 0L13.35-35L19.40-35L33.65 0L26.05 0L23.65-6.65L9.05-6.65L6.65 0ZM15.10-22.25L15.10-22.25L11.35-12.70L21.35-12.70L17.60-22.25Q16.85-24.25 16.35-26.25L16.35-26.25Q15.85-24.10 15.10-22.25ZM43.60 0.65L43.60 0.65Q37.05 0.65 32.80-3.90L32.80-3.90L37.35-8.05Q40.20-4.85 43.45-4.85L43.45-4.85Q45.20-4.85 46.13-5.63Q47.05-6.40 47.05-7.55L47.05-7.55Q47.05-8.25 46.73-8.75Q46.40-9.25 45.38-9.70Q44.35-10.15 42.30-10.60L42.30-10.60Q38.80-11.45 37.10-12.70Q35.40-13.95 34.85-15.50Q34.30-17.05 34.30-18.70L34.30-18.70Q34.30-22.10 36.88-24.38Q39.45-26.65 44-26.65L44-26.65Q47.15-26.65 49.40-25.70Q51.65-24.75 53.65-22.15L53.65-22.15L48.75-18.40Q47.80-19.90 46.63-20.55Q45.45-21.20 44.15-21.20L44.15-21.20Q42.75-21.20 41.83-20.65Q40.90-20.10 40.90-18.90L40.90-18.90Q40.90-18.25 41.50-17.63Q42.10-17 44.40-16.40L44.40-16.40Q48.20-15.45 50.20-14.18Q52.20-12.90 52.95-11.30Q53.70-9.70 53.70-7.75L53.70-7.75Q53.70-5.35 52.38-3.45Q51.05-1.55 48.78-0.45Q46.50 0.65 43.60 0.65ZM63.10 0L56.35 0L56.35-36.50L63.10-36.50L63.10-15.50L72.85-26L82.45-26L70.20-13.90L82.50 0L73.55 0L63.10-12.35L63.10 0ZM99.95 0L92.95 0L92.95-35L99.95-35L99.95-20.90L114.45-20.90L114.45-35L121.45-35L121.45 0L114.45 0L114.45-14.60L99.95-14.60L99.95 0ZM129.30-28.15L129.30-28.15Q127.60-28.15 126.43-29.33Q125.25-30.50 125.25-32.15L125.25-32.15Q125.25-33.75 126.43-34.93Q127.60-36.10 129.30-36.10L129.30-36.10Q131.05-36.10 132.20-34.93Q133.35-33.75 133.35-32.15L133.35-32.15Q133.35-30.45 132.20-29.30Q131.05-28.15 129.30-28.15ZM132.70 0L125.95 0L125.95-26L132.70-26L132.70 0ZM151.60 0L144.80 0L133.95-26L141.95-26L147.15-11.15Q147.85-9.15 148.25-7L148.25-7Q148.65-9.15 149.35-11.15L149.35-11.15L154.55-26L162.40-26L151.60 0ZM173.85 0.65L173.85 0.65Q170.30 0.65 167.38-1.18Q164.45-3 162.73-6.08Q161.00-9.15 161.00-12.90L161.00-12.90Q161.00-15.70 162.00-18.18Q163.00-20.65 164.75-22.53Q166.50-24.40 168.83-25.48Q171.15-26.55 173.85-26.55L173.85-26.55Q177.25-26.55 179.15-25.28Q181.05-24 182.10-21.90L182.10-21.90L182.10-26L188.80-26L188.80 0L182.25 0L182.25-4.25Q181.20-2.05 179.28-0.70Q177.35 0.65 173.85 0.65ZM174.95-5.45L174.95-5.45Q177.20-5.45 178.83-6.48Q180.45-7.50 181.35-9.20Q182.25-10.90 182.25-12.90L182.25-12.90Q182.25-14.95 181.35-16.65Q180.45-18.35 178.83-19.40Q177.20-20.45 174.95-20.45L174.95-20.45Q172.80-20.45 171.18-19.43Q169.55-18.40 168.65-16.70Q167.75-15 167.75-12.95L167.75-12.95Q167.75-11 168.65-9.28Q169.55-7.55 171.18-6.50Q172.80-5.45 174.95-5.45Z" fill="currentColor"/></svg>